<svg width="11100" height="4070" viewBox="0 0 11100 4070" fill="none" xmlns="http://www.w3.org/2000/svg">
<path d="M691.257 256.977C410.646 249.557 0 0.283992 0 0.283992V4070H11100V0.283992C10871.7 192.519 10704.4 256.889 10432.7 256.977C10160.8 257.065 10036.7 3.15449 9764.8 0.283992C9485.21 -2.66768 9355.95 263.148 9076.39 256.977C8812.42 251.15 8693.57 6.10033 8429.6 0.283992C8150.07 -5.87512 8020.8 263.124 7741.27 256.977C7477.27 251.172 7358.41 5.13558 7094.4 0.283992C6817.54 -4.80368 6690.08 260.965 6413.21 256.977C6146.52 253.135 6025.81 9.57355 5759.2 0.283992C5466.5 -9.91421 5328.5 257.947 5035.7 256.977C4745.61 256.016 4609.44 6.72123 4319.4 0.283992C4010.16 -6.57923 3861.35 270.499 3552.23 256.977C3278.71 245.012 3153.21 8.27297 2879.6 0.283992C2583.24 -8.36903 2442.89 260.593 2146.47 256.977C1860.02 253.483 1726.23 5.70728 1439.8 0.283992C1137.58 -5.43813 993.443 264.967 691.257 256.977Z" fill="url(#paint0_linear_616_77405)"/>
<defs>
<linearGradient id="paint0_linear_616_77405" x1="5550" y1="0" x2="5550" y2="4070" gradientUnits="userSpaceOnUse">
<stop stop-color="#17D4C9" stop-opacity="0.21"/>
<stop offset="1" stop-color="#1C1C1C"/>
</linearGradient>
</defs>
</svg>
